# xmcd
#
# Track frame offsets:
# 150
# 16628
# 31286
# 52580
# 67728
# 85182
# 102373
# 118134
# 135488
# 150056
# 167048
# 182188
# 197620
# 212182
# 230800
#
# Disc length: 3316 seconds
#
#
# Revision: 0
# Processed by: cddbd v1.5.2PL0 Copyright (c) Steve Scherf et al.
# Submitted via: FreeRIP 2.91 
#
DISCID=b50cf20f
DTITLE=Eduardo Costa - No Boteco
DYEAR=2005
DGENRE=Country
TTITLE0=Entre Ele e Eu
TTITLE1=Tô Indo Embora
TTITLE2=Me Explica
TTITLE3=Diz Pro Meu Olhar
TTITLE4=Linda Demais
TTITLE5=É de Madrugada
TTITLE6=As Paredes Azuis
TTITLE7=Imperfeito
TTITLE8=Você Só Me Faz Feliz
TTITLE9=Imã
TTITLE10=Você Decide
TTITLE11=Página de Amigos
TTITLE12=Nos Bares da Cidade
TTITLE13=Saudade de Nós Dois
TTITLE14=Eu e a Solidão
EXTD=
EXTT0=
EXTT1=
EXTT2=
EXTT3=
EXTT4=
EXTT5=
EXTT6=
EXTT7=
EXTT8=
EXTT9=
EXTT10=
EXTT11=
EXTT12=
EXTT13=
EXTT14=
PLAYORDER=
